<svg width="17" height="17" viewBox="0 0 17 17" fill="none" xmlns="http://www.w3.org/2000/svg">
<path d="M9.44444 17H1.88889C0.845684 17 0 16.1543 0 15.1111V1.88889C0 0.845684 0.845684 0 1.88889 0H15.1111C16.1543 0 17 0.845684 17 1.88889V9.44444C16.9996 9.45536 16.9977 9.46616 16.9943 9.47656C16.9916 9.48518 16.9897 9.49403 16.9887 9.503C16.9833 9.58629 16.9671 9.66852 16.9405 9.74761L16.932 9.77311C16.9256 9.79443 16.9178 9.81527 16.9084 9.83544C16.8627 9.93834 16.7987 10.0321 16.7195 10.1122L10.1084 16.7233C9.93224 16.8995 9.6936 16.9989 9.44444 17ZM1.88889 1.88889V15.1111H8.5V9.44444C8.5 8.92284 8.92284 8.5 9.44444 8.5H15.1111V1.88889H1.88889ZM10.3889 10.3889V13.7766L13.7757 10.3889H10.3889Z" fill="#949BAE"/>
</svg>
