<svg width="195" height="25" viewBox="0 0 195 25" fill="none" xmlns="http://www.w3.org/2000/svg">
<path d="M64.6324 24.6086C63.2717 24.4952 62.3646 23.4747 62.3646 22.2274V2.83772C62.3646 2.15738 62.5914 1.59043 63.0449 1.13687C63.4985 0.68331 64.0654 0.45653 64.8592 0.45653H77.5589C78.2392 0.45653 78.8061 0.68331 79.2597 1.13687C79.7133 1.59043 79.94 2.15738 79.94 2.83772C79.94 3.40467 79.7133 3.85823 79.2597 4.31179C78.8061 4.76536 78.2392 4.99214 77.5589 4.99214H67.2403C67.2403 10.3215 67.2403 14.8571 67.2403 20.1864H77.5589C78.2392 20.1864 78.8061 20.4132 79.2597 20.8668C79.7133 21.3203 79.94 21.7739 79.94 22.3408C79.94 23.7015 78.9195 24.722 77.5589 24.722H64.6324V24.6086ZM55.5612 20.073C56.2415 20.073 56.8085 20.2998 57.262 20.7534C57.7156 21.2069 58.0558 21.6605 58.0558 22.2274C58.0558 22.9078 57.829 23.4747 57.3754 23.9283C56.9218 24.3819 56.3549 24.6086 55.5612 24.6086H43.6552C42.0677 24.6086 41.1606 23.7015 41.1606 22.114V2.83772C41.1606 1.47704 42.2945 0.45653 43.6552 0.45653C45.0159 0.45653 46.1498 1.47704 46.1498 2.83772V20.073H55.5612ZM32.543 24.6086C31.8626 24.6086 31.2957 24.3819 30.8421 23.9283C30.3886 23.4747 30.1618 22.9078 30.1618 22.2274V2.83772C30.1618 1.47704 31.2957 0.45653 32.6564 0.45653C34.017 0.45653 35.1509 1.47704 35.1509 2.83772V22.2274C35.1509 22.9078 34.9242 23.4747 34.4706 23.9283C33.7903 24.3819 33.2233 24.6086 32.543 24.6086ZM2.49458 24.6086C1.81424 24.6086 1.24729 24.3819 0.793731 23.9283C0.22678 23.4747 0 22.9078 0 22.2274V2.83772C0 2.15738 0.22678 1.47704 0.680341 1.02348C1.1339 0.56992 1.70085 0.34314 2.38119 0.34314C3.06153 0.34314 3.74187 0.56992 4.19544 1.13687L11.906 10.0947L19.5031 1.02348C19.9567 0.56992 20.5236 0.34314 21.204 0.34314C22.678 0.34314 23.8119 1.47704 23.8119 2.83772V22.2274C23.8119 22.9078 23.5851 23.4747 23.1316 23.9283C22.678 24.3819 22.1111 24.6086 21.4307 24.6086C20.0701 24.6086 18.9362 23.4747 18.9362 22.2274V9.07418L13.6068 15.5374C13.1533 15.991 12.5863 16.2178 12.0194 16.2178C11.4524 16.2178 10.8855 15.991 10.4319 15.424L4.87578 9.07418V22.2274C4.87578 22.9078 4.649 23.4747 4.19544 23.9283C3.74187 24.3819 3.17492 24.6086 2.49458 24.6086Z" fill="#250186"/>
<path fill-rule="evenodd" clip-rule="evenodd" d="M75.519 9.75098C77.2199 9.75098 78.5806 11.1117 78.5806 12.8125C78.5806 14.5134 77.2199 15.874 75.519 15.874C73.8182 15.874 72.4575 14.5134 72.4575 12.8125C72.4575 11.1117 73.8182 9.75098 75.519 9.75098Z" fill="#FF3956"/>
<path d="M185.391 13.0402C186.639 13.0402 187.659 12.7 188.453 11.9063C189.247 11.1125 189.7 10.2054 189.7 9.07151C189.7 7.93761 189.247 6.9171 188.453 6.12336C187.659 5.32963 186.639 4.87607 185.391 4.87607H181.196V12.9268H185.391V13.0402ZM194.122 20.6373C194.576 21.3176 194.803 21.8846 194.803 22.5649C194.803 23.2453 194.576 23.8122 194.009 24.1524C193.442 24.606 192.875 24.7193 192.195 24.7193C191.401 24.7193 190.834 24.3792 190.267 23.6988L185.732 17.4624C185.505 17.4624 185.051 17.4624 184.484 17.4624H181.083V22.1114C181.083 22.7917 180.856 23.3587 180.402 23.8122C179.949 24.2658 179.382 24.4926 178.701 24.4926C178.021 24.4926 177.454 24.2658 177.001 23.8122C176.547 23.3587 176.32 22.7917 176.32 22.1114V2.83505C176.32 2.15471 176.547 1.58776 177.001 1.1342C177.454 0.680638 178.021 0.453857 178.701 0.453857H185.278C186.979 0.453857 188.453 0.794028 189.927 1.58776C192.762 3.06183 194.576 5.89658 194.576 9.07151C194.576 10.659 194.236 12.133 193.556 13.2669C192.875 14.4008 191.968 15.308 190.721 15.9883L194.122 20.6373ZM167.589 24.606C166.909 24.606 166.342 24.3792 165.888 23.9256C165.435 23.4721 165.208 22.9051 165.208 22.2248V2.83505C165.208 1.47437 166.342 0.453857 167.703 0.453857C169.063 0.453857 170.197 1.47437 170.197 2.83505V22.2248C170.197 22.9051 169.97 23.4721 169.517 23.9256C168.836 24.3792 168.27 24.606 167.589 24.606Z" fill="#250186"/>
<path fill-rule="evenodd" clip-rule="evenodd" d="M142.645 9.75098C144.346 9.75098 145.707 11.1117 145.707 12.8125C145.707 14.5134 144.346 15.874 142.645 15.874C140.944 15.874 139.584 14.5134 139.584 12.8125C139.47 11.1117 140.944 9.75098 142.645 9.75098Z" fill="#FF3956"/>
<path d="M132.554 0.34017C133.914 0.34017 134.935 1.36068 134.935 2.72136V22.1111C134.935 23.1316 134.255 23.9253 133.347 24.3789C133.121 24.4923 132.894 24.4923 132.554 24.4923C131.76 24.4923 131.193 24.1521 130.739 23.5851L118.493 8.95782V22.1111C118.493 22.7914 118.267 23.3584 117.813 23.8119C117.359 24.2655 116.792 24.4923 116.112 24.4923C115.432 24.4923 114.865 24.2655 114.411 23.8119C113.958 23.3584 113.731 22.7914 113.731 22.1111V2.83475C113.731 1.81424 114.298 0.907121 115.205 0.566951C116.226 0.11339 117.359 0.453561 118.153 1.24729L130.286 15.7612V2.83475C130.059 1.36068 131.193 0.34017 132.554 0.34017ZM95.8153 20.2968C100.238 20.2968 103.526 17.0085 103.526 12.5863C103.526 8.16409 100.351 4.76239 95.8153 4.76239C92.9806 4.76239 90.5994 6.12307 89.1253 8.61765C88.4449 9.86494 88.1048 11.1122 88.1048 12.6997C88.1048 16.8951 91.3931 20.2968 95.8153 20.2968ZM95.8153 24.9458C93.5475 24.9458 91.5065 24.3789 89.5789 23.245C87.6512 22.1111 86.0638 20.637 84.9299 18.7094C83.796 16.7817 83.229 14.7407 83.229 12.4729C83.229 10.2051 83.796 8.16409 84.9299 6.23646C86.0638 4.30883 87.6512 2.72136 89.5789 1.70085C91.5065 0.566951 93.5475 0 95.8153 0C98.0831 0 100.124 0.566951 102.052 1.70085C103.979 2.83475 105.567 4.30883 106.701 6.23646C107.835 8.16409 108.402 10.2051 108.402 12.4729C108.402 14.7407 107.835 16.7817 106.701 18.7094C104.32 22.5646 100.238 24.9458 95.8153 24.9458Z" fill="#FF3956"/>
<path d="M157.727 24.3794C157.047 24.6062 156.48 24.6062 155.799 24.3794C155.232 24.1526 154.779 23.6991 154.552 23.0187L146.615 3.62902C146.048 2.38173 146.728 1.02105 147.975 0.454094C149.223 0.0005337 150.697 0.567484 151.15 1.81478L159.088 21.2045C159.314 21.7714 159.314 22.4518 159.088 23.0187C158.861 23.6991 158.407 24.1526 157.727 24.3794Z" fill="#250186"/>
</svg>
